<svg xmlns="http://www.w3.org/2000/svg" width="640" height="640" viewBox="0 0 640 640">
<g>
<path d="M 254.42 325.25 L 246.96 333.00 L 205.65 333.00 C182.92,333.00 164.03,332.70 163.67,332.33 C163.30,331.97 163.00,313.17 163.00,290.57 L 163.00 249.47 L 174.27 238.23 L 185.53 227.00 L 339.92 227.00 L 344.35 231.75 C346.79,234.36 349.68,237.60 350.76,238.95 L 352.74 241.40 L 368.68 227.00 L 451.00 227.00 L 451.00 308.62 L 439.36 320.81 L 427.72 333.00 L 277.54 333.00 L 261.89 317.50 ZM 177.67 319.33 C178.03,319.70 192.31,320.00 209.39,320.00 L 240.45 320.00 L 255.00 305.55 L 255.00 241.00 L 191.45 241.00 L 177.00 255.55 L 177.00 287.11 C177.00,304.46 177.30,318.97 177.67,319.33 ZM 223.28 425.43 C215.14,427.54 202.87,427.41 196.31,425.14 C170.53,416.23 165.21,386.36 185.60,364.98 C195.81,354.28 207.92,348.41 222.01,347.32 C247.75,345.33 266.64,363.92 261.99,386.63 C260.03,396.18 256.31,402.79 248.45,410.65 C240.62,418.47 233.12,422.88 223.28,425.43 ZM 360.92 318.25 C361.04,319.36 382.25,319.13 384.00,318.00 C385.00,317.35 385.08,317.03 384.25,317.02 C382.28,316.99 382.79,312.50 385.00,310.50 C386.13,309.48 387.00,307.42 387.00,305.78 C387.00,303.32 386.69,302.96 385.00,303.50 C381.64,304.57 381.17,301.07 384.33,298.55 C388.26,295.42 387.77,291.95 381.94,281.70 C379.15,276.80 377.06,272.60 377.29,272.37 C377.52,272.14 385.83,272.08 395.76,272.23 L 413.81 272.50 L 408.90 281.37 C405.46,287.61 404.00,291.37 404.00,294.03 C404.00,297.32 404.26,297.74 406.00,297.29 C407.50,296.90 408.00,297.26 408.00,298.73 C408.00,299.81 407.10,301.50 406.00,302.50 C404.78,303.60 404.00,305.58 404.00,307.56 C404.00,310.32 404.30,310.73 406.00,310.29 C407.53,309.89 408.00,310.26 408.00,311.87 C408.00,313.03 407.10,314.55 406.00,315.23 C401.65,317.95 403.67,319.00 413.23,319.00 L 422.46 319.00 L 430.23 311.27 L 438.00 303.55 L 438.00 241.00 L 374.18 241.00 L 367.54 248.25 L 360.89 255.50 L 360.86 286.50 C360.85,303.55 360.87,317.84 360.92,318.25 ZM 275.73 311.72 L 283.50 318.94 L 315.00 318.72 L 346.50 318.50 L 346.76 286.54 L 347.03 254.58 L 340.29 247.79 L 333.55 241.00 L 316.00 241.00 L 316.00 247.04 C316.00,255.16 318.30,259.30 326.40,265.78 L 333.00 271.06 L 333.00 295.64 L 326.54 300.82 C322.98,303.67 319.62,306.00 319.08,306.00 C318.51,306.00 317.95,302.25 317.79,297.38 L 317.50 288.76 L 311.80 284.26 L 306.10 279.77 L 300.11 284.14 L 294.11 288.50 L 294.06 297.25 C294.02,302.95 293.61,306.00 292.89,306.00 C292.28,306.00 288.91,303.71 285.39,300.91 L 279.00 295.83 L 279.00 271.29 L 286.13 264.95 C294.21,257.78 296.00,254.43 296.00,246.53 L 296.00 241.00 L 268.00 241.00 L 267.98 272.75 L 267.96 304.50 ZM 162.50 423.75 L 161.96 426.00 L 109.82 426.00 L 110.53 421.75 C110.92,419.41 114.25,402.20 117.93,383.50 L 124.62 349.50 L 135.06 348.98 C140.80,348.69 145.86,348.74 146.30,349.08 C146.74,349.42 146.42,352.58 145.59,356.10 C142.40,369.59 135.95,405.11 136.52,406.03 C136.86,406.58 143.28,407.00 151.44,407.00 L 165.77 407.00 L 164.41 414.25 C163.66,418.24 162.80,422.51 162.50,423.75 ZM 248.65 296.23 C248.02,296.64 233.27,296.98 215.87,296.98 C189.43,297.00 184.05,296.76 183.04,295.55 C181.24,293.38 182.18,290.68 185.26,289.20 C186.83,288.45 188.00,287.08 188.00,285.98 C188.00,281.35 192.45,272.34 197.00,267.75 C199.59,265.14 202.18,263.00 202.74,263.00 C203.31,263.00 204.09,265.56 204.48,268.68 C204.87,271.81 205.62,275.49 206.14,276.86 C206.99,279.09 207.24,279.19 208.61,277.81 C209.95,276.48 209.99,275.24 208.89,268.06 C207.39,258.27 207.57,258.04 216.63,258.02 C224.50,258.00 225.25,258.86 223.98,266.57 C222.50,275.60 222.68,278.21 224.73,277.81 C226.01,277.57 226.82,275.62 227.84,270.31 C229.42,262.10 230.00,261.93 236.33,267.89 C241.07,272.34 243.84,277.57 244.67,283.58 C245.16,287.16 245.81,288.36 247.65,289.06 C248.94,289.55 250.05,290.52 250.12,291.23 C250.34,293.64 249.80,295.50 248.65,296.23 ZM 208.94 407.06 C211.69,407.91 219.04,407.27 222.82,405.86 C227.18,404.24 232.17,399.64 235.07,394.57 C237.48,390.37 237.98,388.35 237.99,382.83 C238.00,377.08 237.64,375.72 235.38,373.04 C231.74,368.71 227.95,367.00 222.02,367.00 C209.31,367.00 198.61,376.69 197.30,389.39 C196.81,394.12 197.10,395.49 199.40,399.42 C202.05,403.94 204.07,405.56 208.94,407.06 ZM 124.03 457.48 C119.81,459.67 116.26,459.35 113.45,456.55 C110.18,453.27 110.32,449.53 113.85,446.00 C121.58,438.27 133.29,443.74 128.56,452.88 C127.69,454.58 125.65,456.65 124.03,457.48 ZM 481.34 458.06 C477.61,459.48 475.54,459.21 472.63,456.93 C466.15,451.82 473.57,440.66 482.29,442.41 C486.69,443.29 488.00,444.79 488.00,448.93 C488.00,452.99 485.44,456.50 481.34,458.06 ZM 265.67 455.53 C263.06,458.14 261.35,459.00 258.77,459.00 C251.59,459.00 248.31,450.40 253.62,445.47 C259.53,440.00 268.13,441.93 268.82,448.88 C269.07,451.41 268.42,452.78 265.67,455.53 ZM 380.60 455.60 C376.59,459.61 372.60,460.05 368.63,456.93 C361.38,451.22 370.54,439.59 379.59,443.03 C385.26,445.19 385.69,450.51 380.60,455.60 ZM 396.08 457.29 C392.98,459.13 386.49,459.60 385.54,458.07 C385.04,457.25 385.55,453.92 387.54,445.20 C388.02,443.09 388.52,442.93 393.75,443.20 C398.64,443.46 399.63,443.85 400.86,446.05 C402.11,448.29 402.08,449.02 400.63,452.09 C399.71,454.02 397.67,456.36 396.08,457.29 ZM 349.31 454.74 C348.80,456.91 347.74,458.62 346.81,458.80 C344.92,459.16 343.80,457.76 344.44,455.84 C344.68,455.10 345.39,451.91 346.01,448.75 C347.02,443.62 347.41,443.00 349.59,443.00 C351.24,443.00 352.42,443.82 353.18,445.50 C353.81,446.88 354.62,448.00 354.99,448.00 C355.35,448.00 356.71,446.88 358.00,445.50 C359.29,444.12 361.38,443.00 362.65,443.00 C364.71,443.00 364.88,443.34 364.32,446.25 C362.48,455.72 361.44,458.49 359.60,458.84 C357.93,459.16 357.77,458.73 358.26,455.10 C358.83,450.81 358.10,449.97 356.00,452.50 C355.32,453.33 354.14,454.00 353.38,454.00 C352.62,454.00 352.00,453.33 352.00,452.50 C352.00,449.55 350.18,451.07 349.31,454.74 ZM 275.00 455.07 C274.69,457.18 273.87,458.60 272.84,458.79 C269.62,459.41 269.48,457.09 272.12,446.75 C272.90,443.71 273.54,443.00 275.50,443.00 C276.91,443.00 278.38,443.84 279.00,445.00 C279.59,446.10 280.45,447.00 280.92,447.00 C281.39,447.00 282.00,446.10 282.29,445.00 C282.61,443.78 283.65,443.00 284.97,443.00 C286.94,443.00 287.07,443.37 286.48,447.27 C285.14,456.24 284.41,458.49 282.73,458.81 C281.55,459.04 280.54,457.90 279.39,455.03 C277.47,450.23 275.71,450.24 275.00,455.07 ZM 182.64 457.25 C180.92,459.46 178.00,459.53 178.00,457.37 C178.00,456.47 178.53,452.87 179.17,449.37 L 180.35 443.00 L 185.64 443.00 C190.01,443.00 191.13,443.37 192.06,445.12 C193.00,446.87 192.80,447.77 190.96,450.27 C189.11,452.77 188.92,453.64 189.89,455.20 C192.13,458.78 188.00,460.65 185.36,457.25 C184.06,455.58 183.94,455.58 182.64,457.25 ZM 135.61 453.99 C134.89,456.91 133.89,458.60 132.75,458.81 C130.63,459.22 130.49,456.86 132.14,448.67 C133.18,443.46 133.49,443.00 135.98,443.00 C137.94,443.00 139.04,443.75 140.00,445.75 L 141.32 448.50 L 142.35 445.75 C143.08,443.81 144.09,443.00 145.76,443.00 C147.54,443.00 148.01,443.43 147.64,444.75 C147.36,445.71 146.63,449.08 146.00,452.23 C144.30,460.80 143.19,460.89 138.61,452.82 L 136.73 449.50 ZM 318.64 457.50 C318.32,458.33 317.37,459.00 316.53,459.00 C314.67,459.00 314.59,456.59 316.20,448.81 L 317.40 443.00 L 321.62 443.00 C323.94,443.00 326.55,443.27 327.42,443.61 C329.66,444.47 329.40,449.33 326.99,451.51 C325.18,453.15 325.12,453.54 326.44,455.55 C327.24,456.77 327.62,458.05 327.28,458.39 C326.11,459.56 322.93,458.99 322.36,457.50 C322.05,456.67 321.21,456.00 320.50,456.00 C319.79,456.00 318.95,456.67 318.64,457.50 ZM 493.43 457.75 C493.01,459.20 490.38,459.43 489.56,458.09 C489.25,457.59 489.19,456.58 489.44,455.84 C489.68,455.10 490.39,451.91 491.01,448.75 C492.00,443.71 492.43,443.00 494.49,443.00 C495.87,443.00 497.62,444.09 498.77,445.66 L 500.70 448.31 L 501.37 445.66 C501.83,443.85 502.70,443.00 504.11,443.00 C506.03,443.00 506.14,443.38 505.49,448.06 C503.87,459.88 502.09,461.30 498.06,454.00 L 495.57 449.50 L 494.68 453.00 C494.19,454.93 493.62,457.06 493.43,457.75 ZM 433.00 457.50 C431.74,459.02 429.79,459.46 428.78,458.44 C428.47,458.14 430.08,454.55 432.36,450.47 C435.92,444.08 436.88,443.04 439.23,443.02 C441.25,443.01 442.09,443.58 442.47,445.25 C445.27,457.53 445.28,459.00 442.56,459.00 C441.84,459.00 440.68,458.33 440.00,457.50 C439.32,456.67 437.74,456.00 436.50,456.00 C435.26,456.00 433.68,456.67 433.00,457.50 ZM 205.70 457.50 C202.69,459.61 197.67,459.39 195.56,457.06 C194.19,455.55 193.95,454.18 194.47,450.81 C195.54,444.00 196.00,443.00 198.14,443.00 C199.99,443.00 200.09,443.43 199.46,448.49 C198.89,453.05 199.05,454.08 200.40,454.60 C202.99,455.60 204.77,453.28 205.51,447.95 C206.12,443.53 206.45,443.00 208.67,443.00 C210.94,443.00 211.10,443.28 210.51,446.25 C209.21,452.74 207.80,456.02 205.70,457.50 ZM 159.96 456.81 C157.73,459.20 151.91,459.76 148.69,457.89 C146.10,456.38 148.39,453.81 151.61,454.62 C152.92,454.95 154.78,454.90 155.75,454.52 C157.19,453.95 156.87,453.53 154.00,452.16 C151.16,450.80 150.50,449.92 150.50,447.50 C150.50,445.22 151.16,444.21 153.34,443.17 C156.16,441.82 163.00,442.30 163.00,443.85 C163.00,445.65 160.50,446.85 157.85,446.32 C153.90,445.53 154.28,447.29 158.50,449.30 C162.52,451.22 162.98,453.57 159.96,456.81 ZM 341.81 456.75 C341.56,458.10 340.30,458.57 336.33,458.80 C333.50,458.96 330.95,458.72 330.66,458.26 C330.38,457.80 330.85,454.18 331.72,450.21 L 333.31 443.00 L 338.73 443.00 C343.35,443.00 344.10,443.26 343.82,444.75 C343.60,445.90 342.38,446.61 340.24,446.81 C336.16,447.21 335.96,449.00 340.00,449.00 C343.00,451.55 341.94,452.00 339.50,452.00 C337.06,452.00 336.00,452.45 336.00,453.50 C336.00,454.51 337.01,455.00 339.07,455.00 C341.46,455.00 342.07,455.39 341.81,456.75 ZM 413.81 456.75 C413.56,458.10 412.30,458.57 408.33,458.80 C405.50,458.96 402.98,458.74 402.73,458.30 C402.48,457.86 402.86,454.80 403.57,451.50 C404.29,448.20 404.90,444.94 404.94,444.25 C404.98,443.41 406.82,443.00 410.57,443.00 C415.34,443.00 416.10,443.25 415.82,444.75 C415.60,445.90 414.38,446.61 412.24,446.81 C408.16,447.21 407.96,449.00 412.00,449.00 C415.00,451.55 413.94,452.00 411.50,452.00 C409.06,452.00 408.00,452.45 408.00,453.50 C408.00,454.51 409.01,455.00 411.07,455.00 C413.46,455.00 414.07,455.39 413.81,456.75 ZM 107.96 457.07 C106.68,459.46 101.40,459.67 98.22,457.44 C95.24,455.35 95.13,448.87 98.04,445.96 C101.47,442.53 106.98,441.07 109.78,442.85 C112.29,444.43 109.97,446.88 105.66,447.20 C101.63,447.49 101.50,447.61 101.50,451.00 C101.50,454.42 101.59,454.49 105.25,454.28 C109.34,454.04 109.50,454.20 107.96,457.07 ZM 458.97 457.06 C457.68,459.46 452.40,459.67 449.22,457.44 C446.54,455.57 446.18,449.62 448.54,446.25 C451.47,442.07 462.55,440.89 461.80,444.84 C461.58,446.00 460.13,446.65 456.99,447.00 C452.62,447.49 452.50,447.59 452.50,451.00 C452.50,454.32 452.69,454.52 456.25,454.81 C459.62,455.09 459.90,455.32 458.97,457.06 ZM 239.80 456.42 C239.32,459.75 232.78,459.87 229.51,456.60 C226.50,453.59 226.37,451.54 228.93,447.35 C232.19,442.00 243.60,439.99 242.29,445.00 C241.88,446.57 240.93,447.00 237.85,447.00 C234.71,447.00 233.77,447.44 233.09,449.25 C231.76,452.77 233.60,455.29 237.14,454.77 C239.67,454.39 240.05,454.63 239.80,456.42 ZM 224.29 457.00 C223.58,459.72 218.13,459.68 214.63,456.93 C209.56,452.94 212.52,444.73 219.82,442.52 C223.37,441.45 227.00,442.71 227.00,445.02 C227.00,446.61 226.32,447.00 223.58,447.00 C218.72,447.00 217.00,447.89 217.00,450.41 C217.00,453.35 218.83,455.00 222.11,455.00 C224.32,455.00 224.72,455.36 224.29,457.00 ZM 302.47 454.93 C301.52,458.22 299.25,459.92 297.78,458.45 C297.44,458.10 297.40,456.30 297.70,454.45 C298.03,452.44 297.59,449.44 296.63,447.04 L 295.02 443.00 L 298.01 443.00 C300.00,443.00 301.00,443.50 301.00,444.50 C301.00,445.33 301.39,446.00 301.88,446.00 C302.36,446.00 303.32,445.33 304.00,444.50 C304.68,443.67 306.35,443.00 307.71,443.00 L 310.17 443.00 L 306.83 447.19 C305.00,449.49 303.04,452.97 302.47,454.93 ZM 172.08 453.00 C171.10,458.00 170.56,459.00 168.85,459.00 C166.94,459.00 166.85,458.61 167.50,453.00 C168.09,447.88 167.96,447.00 166.60,447.00 C165.67,447.00 165.00,446.17 165.00,445.00 C165.00,443.19 165.67,443.00 172.04,443.00 C178.76,443.00 179.02,443.09 178.00,445.00 C177.41,446.10 176.10,447.00 175.09,447.00 C173.65,447.00 173.01,448.28 172.08,453.00 ZM 427.00 457.00 C426.18,458.54 424.91,459.00 421.52,459.00 C419.10,459.00 416.91,458.66 416.66,458.25 C416.42,457.84 416.92,454.24 417.78,450.25 C419.04,444.38 419.70,443.00 421.22,443.00 C422.93,443.00 423.04,443.55 422.42,449.00 L 421.74 455.00 L 424.91 455.00 C427.76,455.00 427.97,455.20 427.00,457.00 ZM 247.59 453.99 C246.88,456.91 245.89,458.59 244.75,458.81 C242.63,459.22 242.49,456.86 244.14,448.67 C245.13,443.72 245.57,443.00 247.61,443.00 C250.16,443.00 250.16,443.43 247.59,453.99 ZM 466.59 453.99 C465.88,456.91 464.89,458.59 463.75,458.81 C461.68,459.21 461.66,458.93 463.15,449.94 C464.18,443.67 464.52,443.00 466.62,443.00 C469.16,443.00 469.16,443.44 466.59,453.99 ZM 256.66 453.52 C258.57,455.43 259.91,455.39 262.17,453.35 C264.39,451.34 264.56,448.15 262.50,447.36 C258.02,445.64 253.53,450.38 256.66,453.52 ZM 117.00 453.00 C118.37,455.56 120.46,455.54 123.06,452.94 C125.95,450.05 125.20,447.57 121.31,447.19 C117.42,446.81 115.25,449.74 117.00,453.00 ZM 372.25 454.34 C374.43,455.22 375.30,455.04 377.17,453.35 C381.00,449.88 378.66,446.11 373.50,447.41 C371.55,447.90 371.00,448.68 371.00,450.94 C371.00,452.53 371.56,454.06 372.25,454.34 ZM 476.20 453.80 C476.86,454.46 477.84,455.00 478.37,455.00 C480.26,455.00 483.00,451.66 483.00,449.35 C483.00,447.44 482.47,447.00 480.20,447.00 C475.65,447.00 473.34,450.94 476.20,453.80 ZM 391.19 451.25 C391.02,453.31 391.32,455.00 391.87,455.00 C393.71,455.00 396.00,451.87 396.00,449.36 C396.00,447.34 395.57,446.92 393.75,447.18 C391.94,447.44 391.44,448.24 391.19,451.25 ZM 307.81 303.17 C307.30,308.41 304.00,308.11 304.00,302.83 C304.00,300.64 304.46,300.00 306.06,300.00 C307.78,300.00 308.07,300.53 307.81,303.17 ZM 484.17 439.35 C480.76,442.43 478.36,440.79 481.57,437.57 C483.25,435.89 486.00,435.44 486.00,436.85 C486.00,437.31 485.18,438.43 484.17,439.35 ZM 265.35 439.17 C263.60,441.10 261.00,441.64 261.00,440.07 C261.00,438.95 263.83,436.00 264.90,436.00 C266.68,436.00 266.89,437.47 265.35,439.17 ZM 184.00 449.00 C184.00,451.27 185.04,451.56 186.80,449.80 C188.56,448.04 188.27,447.00 186.00,447.00 C184.67,447.00 184.00,447.67 184.00,449.00 ZM 436.57 452.11 C436.88,452.62 437.56,452.77 438.07,452.46 C439.26,451.72 439.29,448.00 438.11,448.00 C436.93,448.00 435.84,450.92 436.57,452.11 ZM 321.00 449.08 C321.00,451.52 323.34,451.18 323.82,448.67 C324.01,447.68 323.50,447.00 322.57,447.00 C321.65,447.00 321.00,447.86 321.00,449.08 Z" fill="rgb(40,40,40)"/>
<path d="M 436.57 452.11 C435.84,450.92 436.93,448.00 438.11,448.00 C439.29,448.00 439.26,451.72 438.07,452.46 C437.56,452.77 436.88,452.62 436.57,452.11 Z" fill="rgb(169,136,137)"/>
<path d="M 447.12 407.00 L 443.50 425.50 L 432.73 425.78 L 421.97 426.07 L 422.61 421.78 C422.96,419.43 424.33,412.10 425.64,405.50 C426.95,398.90 429.84,384.27 432.04,373.00 C434.25,361.73 436.30,351.71 436.60,350.75 C437.07,349.21 438.57,349.00 449.06,349.00 L 460.99 349.00 L 469.06 365.13 C473.57,374.13 477.52,380.87 477.99,380.38 C478.46,379.90 479.56,375.45 480.43,370.50 C481.31,365.55 482.58,358.80 483.26,355.50 L 484.50 349.50 L 495.25 349.22 C503.94,348.99 506.00,349.20 506.00,350.33 C506.00,351.11 503.51,364.06 500.46,379.12 C497.42,394.18 494.26,410.33 493.44,415.00 C492.63,419.67 491.76,424.06 491.51,424.75 C491.21,425.60 488.69,426.00 483.75,426.00 C476.72,426.00 476.39,425.89 475.29,423.25 C472.90,417.57 454.86,383.44 453.53,382.11 C452.35,380.92 452.04,381.29 451.44,384.61 C451.05,386.75 449.11,396.83 447.12,407.00 ZM 359.81 419.25 L 356.50 425.50 L 344.63 425.78 C333.62,426.05 332.81,425.94 333.44,424.29 C334.00,422.83 347.31,399.22 372.36,355.24 L 376.50 347.98 L 400.39 348.50 L 401.71 355.50 C402.43,359.35 404.60,371.50 406.53,382.50 C408.45,393.50 410.91,407.23 412.00,413.00 C413.09,418.77 413.77,424.06 413.52,424.75 C413.19,425.65 409.86,426.00 401.61,426.00 L 390.16 426.00 L 389.46 419.50 L 388.77 413.00 L 363.11 413.00 ZM 314.38 424.02 C309.59,425.86 305.99,426.35 295.00,426.65 C282.66,427.00 280.86,426.82 274.00,424.51 C269.88,423.13 265.45,421.18 264.16,420.18 L 261.82 418.36 L 266.49 410.68 C271.40,402.58 273.32,401.48 277.53,404.33 C283.72,408.52 302.30,410.00 307.33,406.70 C312.90,403.05 310.28,399.88 298.50,396.01 C276.22,388.69 271.11,382.21 275.59,366.93 C276.81,362.80 278.43,360.29 282.37,356.44 C289.48,349.51 296.17,347.54 312.50,347.57 C322.96,347.58 325.32,347.91 330.94,350.12 C340.04,353.70 340.27,354.47 334.66,362.33 C332.08,365.95 329.60,369.13 329.14,369.41 C328.68,369.70 325.88,368.99 322.91,367.85 C316.62,365.44 303.81,364.86 300.25,366.83 C297.37,368.42 297.26,372.53 300.05,374.03 C301.18,374.63 306.58,376.63 312.05,378.47 C329.31,384.27 333.01,387.79 332.99,398.40 C332.97,410.01 326.05,419.53 314.38,424.02 ZM 374.26 396.15 C377.25,396.76 386.02,396.28 386.86,395.46 C387.21,395.12 385.42,380.32 384.34,374.65 C384.04,373.08 383.44,372.18 383.00,372.65 C382.57,373.12 379.69,378.45 376.62,384.50 L 371.03 395.50 Z" fill="rgb(193,23,32)"/>
<path d="M 0.00 320.00 L 0.00 0.00 L 320.00 0.00 L 640.00 0.00 L 640.00 320.00 L 640.00 640.00 L 320.00 640.00 L 0.00 640.00 L 0.00 320.00 ZM 107.96 457.07 C109.50,454.20 109.34,454.04 105.25,454.28 C101.59,454.49 101.50,454.42 101.50,451.00 C101.50,447.61 101.63,447.49 105.66,447.20 C109.97,446.88 112.29,444.43 109.78,442.85 C106.98,441.07 101.47,442.53 98.04,445.96 C95.13,448.87 95.24,455.35 98.22,457.44 C101.40,459.67 106.68,459.46 107.96,457.07 ZM 124.03 457.48 C125.65,456.65 127.69,454.58 128.56,452.88 C133.29,443.74 121.58,438.27 113.85,446.00 C110.32,449.53 110.18,453.27 113.45,456.55 C116.26,459.35 119.81,459.67 124.03,457.48 ZM 135.61 453.99 L 136.73 449.50 L 138.61 452.82 C143.19,460.89 144.30,460.80 146.00,452.23 C146.63,449.08 147.36,445.71 147.64,444.75 C148.01,443.43 147.54,443.00 145.76,443.00 C144.09,443.00 143.08,443.81 142.35,445.75 L 141.32 448.50 L 140.00 445.75 C139.04,443.75 137.94,443.00 135.98,443.00 C133.49,443.00 133.18,443.46 132.14,448.67 C130.49,456.86 130.63,459.22 132.75,458.81 C133.89,458.60 134.89,456.91 135.61,453.99 ZM 159.96 456.81 C162.98,453.57 162.52,451.22 158.50,449.30 C154.28,447.29 153.90,445.53 157.85,446.32 C160.50,446.85 163.00,445.65 163.00,443.85 C163.00,442.30 156.16,441.82 153.34,443.17 C151.16,444.21 150.50,445.22 150.50,447.50 C150.50,449.92 151.16,450.80 154.00,452.16 C156.87,453.53 157.19,453.95 155.75,454.52 C154.78,454.90 152.92,454.95 151.61,454.62 C148.39,453.81 146.10,456.38 148.69,457.89 C151.91,459.76 157.73,459.20 159.96,456.81 ZM 172.08 453.00 C173.01,448.28 173.65,447.00 175.09,447.00 C176.10,447.00 177.41,446.10 178.00,445.00 C179.02,443.09 178.76,443.00 172.04,443.00 C165.67,443.00 165.00,443.19 165.00,445.00 C165.00,446.17 165.67,447.00 166.60,447.00 C167.96,447.00 168.09,447.88 167.50,453.00 C166.85,458.61 166.94,459.00 168.85,459.00 C170.56,459.00 171.10,458.00 172.08,453.00 ZM 182.64 457.25 C183.94,455.58 184.06,455.58 185.36,457.25 C188.00,460.65 192.13,458.78 189.89,455.20 C188.92,453.64 189.11,452.77 190.96,450.27 C192.80,447.77 193.00,446.87 192.06,445.12 C191.13,443.37 190.01,443.00 185.64,443.00 L 180.35 443.00 L 179.17 449.37 C178.53,452.87 178.00,456.47 178.00,457.37 C178.00,459.53 180.92,459.46 182.64,457.25 ZM 205.70 457.50 C207.80,456.02 209.21,452.74 210.51,446.25 C211.10,443.28 210.94,443.00 208.67,443.00 C206.45,443.00 206.12,443.53 205.51,447.95 C204.77,453.28 202.99,455.60 200.40,454.60 C199.05,454.08 198.89,453.05 199.46,448.49 C200.09,443.43 199.99,443.00 198.14,443.00 C196.00,443.00 195.54,444.00 194.47,450.81 C193.95,454.18 194.19,455.55 195.56,457.06 C197.67,459.39 202.69,459.61 205.70,457.50 ZM 224.29 457.00 C224.72,455.36 224.32,455.00 222.11,455.00 C218.83,455.00 217.00,453.35 217.00,450.41 C217.00,447.89 218.72,447.00 223.58,447.00 C226.32,447.00 227.00,446.61 227.00,445.02 C227.00,442.71 223.37,441.45 219.82,442.52 C212.52,444.73 209.56,452.94 214.63,456.93 C218.13,459.68 223.58,459.72 224.29,457.00 ZM 239.80 456.42 C240.05,454.63 239.67,454.39 237.14,454.77 C233.60,455.29 231.76,452.77 233.09,449.25 C233.77,447.44 234.71,447.00 237.85,447.00 C240.93,447.00 241.88,446.57 242.29,445.00 C243.60,439.99 232.19,442.00 228.93,447.35 C226.37,451.54 226.50,453.59 229.51,456.60 C232.78,459.87 239.32,459.75 239.80,456.42 ZM 247.59 453.99 C250.16,443.43 250.16,443.00 247.61,443.00 C245.57,443.00 245.13,443.72 244.14,448.67 C242.49,456.86 242.63,459.22 244.75,458.81 C245.89,458.59 246.88,456.91 247.59,453.99 ZM 265.67 455.53 C268.42,452.78 269.07,451.41 268.82,448.88 C268.13,441.93 259.53,440.00 253.62,445.47 C248.31,450.40 251.59,459.00 258.77,459.00 C261.35,459.00 263.06,458.14 265.67,455.53 ZM 275.00 455.07 C275.71,450.24 277.47,450.23 279.39,455.03 C280.54,457.90 281.55,459.04 282.73,458.81 C284.41,458.49 285.14,456.24 286.48,447.27 C287.07,443.37 286.94,443.00 284.97,443.00 C283.65,443.00 282.61,443.78 282.29,445.00 C282.00,446.10 281.39,447.00 280.92,447.00 C280.45,447.00 279.59,446.10 279.00,445.00 C278.38,443.84 276.91,443.00 275.50,443.00 C273.54,443.00 272.90,443.71 272.12,446.75 C269.48,457.09 269.62,459.41 272.84,458.79 C273.87,458.60 274.69,457.18 275.00,455.07 ZM 302.47 454.93 C303.04,452.97 305.00,449.49 306.83,447.19 L 310.17 443.00 L 307.71 443.00 C306.35,443.00 304.68,443.67 304.00,444.50 C303.32,445.33 302.36,446.00 301.88,446.00 C301.39,446.00 301.00,445.33 301.00,444.50 C301.00,443.50 300.00,443.00 298.01,443.00 L 295.02 443.00 L 296.63 447.04 C297.59,449.44 298.03,452.44 297.70,454.45 C297.40,456.30 297.44,458.10 297.78,458.45 C299.25,459.92 301.52,458.22 302.47,454.93 ZM 318.64 457.50 C318.95,456.67 319.79,456.00 320.50,456.00 C321.21,456.00 322.05,456.67 322.36,457.50 C322.93,458.99 326.11,459.56 327.28,458.39 C327.62,458.05 327.24,456.77 326.44,455.55 C325.12,453.54 325.18,453.15 326.99,451.51 C329.40,449.33 329.66,444.47 327.42,443.61 C326.55,443.27 323.94,443.00 321.62,443.00 L 317.40 443.00 L 316.20 448.81 C314.59,456.59 314.67,459.00 316.53,459.00 C317.37,459.00 318.32,458.33 318.64,457.50 ZM 341.81 456.75 C342.07,455.39 341.46,455.00 339.07,455.00 C337.01,455.00 336.00,454.51 336.00,453.50 C336.00,452.45 337.06,452.00 339.50,452.00 C341.94,452.00 343.00,451.55 343.00,450.50 C343.00,449.50 342.00,449.00 340.00,449.00 C335.96,449.00 336.16,447.21 340.24,446.81 C342.38,446.61 343.60,445.90 343.82,444.75 C344.10,443.26 343.35,443.00 338.73,443.00 L 333.31 443.00 L 331.72 450.21 C330.85,454.18 330.38,457.80 330.66,458.26 C330.95,458.72 333.50,458.96 336.33,458.80 C340.30,458.57 341.56,458.10 341.81,456.75 ZM 349.31 454.74 C350.18,451.07 352.00,449.55 352.00,452.50 C352.00,453.33 352.62,454.00 353.38,454.00 C354.14,454.00 355.32,453.33 356.00,452.50 C358.10,449.97 358.83,450.81 358.26,455.10 C357.77,458.73 357.93,459.16 359.60,458.84 C361.44,458.49 362.48,455.72 364.32,446.25 C364.88,443.34 364.71,443.00 362.65,443.00 C361.38,443.00 359.29,444.12 358.00,445.50 C356.71,446.88 355.35,448.00 354.99,448.00 C354.62,448.00 353.81,446.88 353.18,445.50 C352.42,443.82 351.24,443.00 349.59,443.00 C347.41,443.00 347.02,443.62 346.01,448.75 C345.39,451.91 344.68,455.10 344.44,455.84 C343.80,457.76 344.92,459.16 346.81,458.80 C347.74,458.62 348.80,456.91 349.31,454.74 ZM 380.60 455.60 C385.69,450.51 385.26,445.19 379.59,443.03 C370.54,439.59 361.38,451.22 368.63,456.93 C372.60,460.05 376.59,459.61 380.60,455.60 ZM 396.08 457.29 C397.67,456.36 399.71,454.02 400.63,452.09 C402.08,449.02 402.11,448.29 400.86,446.05 C399.63,443.85 398.64,443.46 393.75,443.20 C388.52,442.93 388.02,443.09 387.54,445.20 C385.55,453.92 385.04,457.25 385.54,458.07 C386.49,459.60 392.98,459.13 396.08,457.29 ZM 413.81 456.75 C414.07,455.39 413.46,455.00 411.07,455.00 C409.01,455.00 408.00,454.51 408.00,453.50 C408.00,452.45 409.06,452.00 411.50,452.00 C413.94,452.00 415.00,451.55 415.00,450.50 C415.00,449.50 414.00,449.00 412.00,449.00 C407.96,449.00 408.16,447.21 412.24,446.81 C414.38,446.61 415.60,445.90 415.82,444.75 C416.10,443.25 415.34,443.00 410.57,443.00 C406.82,443.00 404.98,443.41 404.94,444.25 C404.90,444.94 404.29,448.20 403.57,451.50 C402.86,454.80 402.48,457.86 402.73,458.30 C402.98,458.74 405.50,458.96 408.33,458.80 C412.30,458.57 413.56,458.10 413.81,456.75 ZM 427.00 457.00 C427.97,455.20 427.76,455.00 424.91,455.00 L 421.74 455.00 L 422.42 449.00 C423.04,443.55 422.93,443.00 421.22,443.00 C419.70,443.00 419.04,444.38 417.78,450.25 C416.92,454.24 416.42,457.84 416.66,458.25 C416.91,458.66 419.10,459.00 421.52,459.00 C424.91,459.00 426.18,458.54 427.00,457.00 ZM 433.00 457.50 C433.68,456.67 435.26,456.00 436.50,456.00 C437.74,456.00 439.32,456.67 440.00,457.50 C440.68,458.33 441.84,459.00 442.56,459.00 C445.28,459.00 445.27,457.53 442.47,445.25 C442.09,443.58 441.25,443.01 439.23,443.02 C436.88,443.04 435.92,444.08 432.36,450.47 C430.08,454.55 428.47,458.14 428.78,458.44 C429.79,459.46 431.74,459.02 433.00,457.50 ZM 458.97 457.06 C459.90,455.32 459.62,455.09 456.25,454.81 C452.69,454.52 452.50,454.32 452.50,451.00 C452.50,447.59 452.62,447.49 456.99,447.00 C460.13,446.65 461.58,446.00 461.80,444.84 C462.55,440.89 451.47,442.07 448.54,446.25 C446.18,449.62 446.54,455.57 449.22,457.44 C452.40,459.67 457.68,459.46 458.97,457.06 ZM 466.59 453.99 C469.16,443.44 469.16,443.00 466.62,443.00 C464.52,443.00 464.18,443.67 463.15,449.94 C461.66,458.93 461.68,459.21 463.75,458.81 C464.89,458.59 465.88,456.91 466.59,453.99 ZM 481.34 458.06 C485.44,456.50 488.00,452.99 488.00,448.93 C488.00,444.79 486.69,443.29 482.29,442.41 C473.57,440.66 466.15,451.82 472.63,456.93 C475.54,459.21 477.61,459.48 481.34,458.06 ZM 493.43 457.75 C493.62,457.06 494.19,454.93 494.68,453.00 L 495.57 449.50 L 498.06 454.00 C502.09,461.30 503.87,459.88 505.49,448.06 C506.14,443.38 506.03,443.00 504.11,443.00 C502.70,443.00 501.83,443.85 501.37,445.66 L 500.70 448.31 L 498.77 445.66 C497.62,444.09 495.87,443.00 494.49,443.00 C492.43,443.00 492.00,443.71 491.01,448.75 C490.39,451.91 489.68,455.10 489.44,455.84 C489.19,456.58 489.25,457.59 489.56,458.09 C490.38,459.43 493.01,459.20 493.43,457.75 ZM 265.35 439.17 C266.89,437.47 266.68,436.00 264.90,436.00 C263.83,436.00 261.00,438.95 261.00,440.07 C261.00,441.64 263.60,441.10 265.35,439.17 ZM 484.17 439.35 C485.18,438.43 486.00,437.31 486.00,436.85 C486.00,435.44 483.25,435.89 481.57,437.57 C478.36,440.79 480.76,442.43 484.17,439.35 ZM 223.28 425.43 C233.12,422.88 240.62,418.47 248.45,410.65 C256.31,402.79 260.03,396.18 261.99,386.63 C266.64,363.92 247.75,345.33 222.01,347.32 C207.92,348.41 195.81,354.28 185.60,364.98 C165.21,386.36 170.53,416.23 196.31,425.14 C202.87,427.41 215.14,427.54 223.28,425.43 ZM 314.38 424.02 C326.05,419.53 332.97,410.01 332.99,398.40 C333.01,387.79 329.31,384.27 312.05,378.47 C306.58,376.63 301.18,374.63 300.05,374.03 C297.26,372.53 297.37,368.42 300.25,366.83 C303.81,364.86 316.62,365.44 322.91,367.85 C325.88,368.99 328.68,369.70 329.14,369.41 C329.60,369.13 332.08,365.95 334.66,362.33 C340.27,354.47 340.04,353.70 330.94,350.12 C325.32,347.91 322.96,347.58 312.50,347.57 C296.17,347.54 289.48,349.51 282.37,356.44 C278.43,360.29 276.81,362.80 275.59,366.93 C271.11,382.21 276.22,388.69 298.50,396.01 C310.28,399.88 312.90,403.05 307.33,406.70 C302.30,410.00 283.72,408.52 277.53,404.33 C273.32,401.48 271.40,402.58 266.49,410.68 L 261.82 418.36 L 264.16 420.18 C265.45,421.18 269.88,423.13 274.00,424.51 C280.86,426.82 282.66,427.00 295.00,426.65 C305.99,426.35 309.59,425.86 314.38,424.02 ZM 162.50 423.75 C162.80,422.51 163.66,418.24 164.41,414.25 L 165.77 407.00 L 151.44 407.00 C143.28,407.00 136.86,406.58 136.52,406.03 C135.95,405.11 142.40,369.59 145.59,356.10 C146.42,352.58 146.74,349.42 146.30,349.08 C145.86,348.74 140.80,348.69 135.06,348.98 L 124.62 349.50 L 117.93 383.50 C114.25,402.20 110.92,419.41 110.53,421.75 L 109.82 426.00 L 135.89 426.00 L 161.96 426.00 L 162.50 423.75 ZM 359.81 419.25 L 363.11 413.00 L 375.94 413.00 L 388.77 413.00 L 389.46 419.50 L 390.16 426.00 L 401.61 426.00 C409.86,426.00 413.19,425.65 413.52,424.75 C413.77,424.06 413.09,418.77 412.00,413.00 C410.91,407.23 408.45,393.50 406.53,382.50 C404.60,371.50 402.43,359.35 401.71,355.50 L 400.39 348.50 L 388.44 348.24 L 376.50 347.98 L 372.36 355.24 C347.31,399.22 334.00,422.83 333.44,424.29 C332.81,425.94 333.62,426.05 344.63,425.78 L 356.50 425.50 L 359.81 419.25 ZM 447.12 407.00 C449.11,396.83 451.05,386.75 451.44,384.61 C452.04,381.29 452.35,380.92 453.53,382.11 C454.86,383.44 472.90,417.57 475.29,423.25 C476.39,425.89 476.72,426.00 483.75,426.00 C488.69,426.00 491.21,425.60 491.51,424.75 C491.76,424.06 492.63,419.67 493.44,415.00 C494.26,410.33 497.42,394.18 500.46,379.12 C503.51,364.06 506.00,351.11 506.00,350.33 C506.00,349.20 503.94,348.99 495.25,349.22 L 484.50 349.50 L 483.26 355.50 C482.58,358.80 481.31,365.55 480.43,370.50 C479.56,375.45 478.46,379.90 477.99,380.38 C477.52,380.87 473.57,374.13 469.06,365.13 L 460.99 349.00 L 449.06 349.00 C438.57,349.00 437.07,349.21 436.60,350.75 C436.30,351.71 434.25,361.73 432.04,373.00 C429.84,384.27 426.95,398.90 425.64,405.50 C424.33,412.10 422.96,419.43 422.61,421.78 L 421.97 426.07 L 432.73 425.78 L 443.50 425.50 L 447.12 407.00 ZM 254.42 325.25 L 261.89 317.50 L 269.72 325.25 L 277.54 333.00 L 352.63 333.00 L 427.72 333.00 L 439.36 320.81 L 451.00 308.62 L 451.00 267.81 L 451.00 227.00 L 409.84 227.00 L 368.68 227.00 L 360.71 234.20 L 352.74 241.40 L 350.76 238.95 C349.68,237.60 346.79,234.36 344.35,231.75 L 339.92 227.00 L 262.73 227.00 L 185.53 227.00 L 174.27 238.23 L 163.00 249.47 L 163.00 290.57 C163.00,313.17 163.30,331.97 163.67,332.33 C164.03,332.70 182.92,333.00 205.65,333.00 L 246.96 333.00 L 254.42 325.25 ZM 117.00 453.00 C115.25,449.74 117.42,446.81 121.31,447.19 C125.20,447.57 125.95,450.05 123.06,452.94 C120.46,455.54 118.37,455.56 117.00,453.00 ZM 184.00 449.00 C184.00,447.67 184.67,447.00 186.00,447.00 C188.27,447.00 188.56,448.04 186.80,449.80 C185.04,451.56 184.00,451.27 184.00,449.00 ZM 256.66 453.52 C253.53,450.38 258.02,445.64 262.50,447.36 C264.56,448.15 264.39,451.34 262.17,453.35 C259.91,455.39 258.57,455.43 256.66,453.52 ZM 321.00 449.08 C321.00,447.86 321.65,447.00 322.57,447.00 C323.50,447.00 324.01,447.68 323.82,448.67 C323.34,451.18 321.00,451.52 321.00,449.08 ZM 372.25 454.34 C371.56,454.06 371.00,452.53 371.00,450.94 C371.00,448.68 371.55,447.90 373.50,447.41 C378.66,446.11 381.00,449.88 377.17,453.35 C375.30,455.04 374.43,455.22 372.25,454.34 ZM 391.19 451.25 C391.44,448.24 391.94,447.44 393.75,447.18 C395.57,446.92 396.00,447.34 396.00,449.36 C396.00,451.87 393.71,455.00 391.87,455.00 C391.32,455.00 391.02,453.31 391.19,451.25 ZM 476.20 453.80 C473.34,450.94 475.65,447.00 480.20,447.00 C482.47,447.00 483.00,447.44 483.00,449.35 C483.00,451.66 480.26,455.00 478.37,455.00 C477.84,455.00 476.86,454.46 476.20,453.80 ZM 208.94 407.06 C204.07,405.56 202.05,403.94 199.40,399.42 C197.10,395.49 196.81,394.12 197.30,389.39 C198.61,376.69 209.31,367.00 222.02,367.00 C227.95,367.00 231.74,368.71 235.38,373.04 C237.64,375.72 238.00,377.08 237.99,382.83 C237.98,388.35 237.48,390.37 235.07,394.57 C232.17,399.64 227.18,404.24 222.82,405.86 C219.04,407.27 211.69,407.91 208.94,407.06 ZM 374.26 396.15 L 371.03 395.50 L 376.62 384.50 C379.69,378.45 382.57,373.12 383.00,372.65 C383.44,372.18 384.04,373.08 384.34,374.65 C385.42,380.32 387.21,395.12 386.86,395.46 C386.02,396.28 377.25,396.76 374.26,396.15 ZM 177.67 319.33 C177.30,318.97 177.00,304.46 177.00,287.11 L 177.00 255.55 L 184.22 248.27 L 191.45 241.00 L 223.22 241.00 L 255.00 241.00 L 255.00 273.28 L 255.00 305.55 L 247.73 312.78 L 240.45 320.00 L 209.39 320.00 C192.31,320.00 178.03,319.70 177.67,319.33 ZM 248.65 296.23 C249.80,295.50 250.34,293.64 250.12,291.23 C250.05,290.52 248.94,289.55 247.65,289.06 C245.81,288.36 245.16,287.16 244.67,283.58 C243.84,277.57 241.07,272.34 236.33,267.89 C230.00,261.93 229.42,262.10 227.84,270.31 C226.82,275.62 226.01,277.57 224.73,277.81 C222.68,278.21 222.50,275.60 223.98,266.57 C225.25,258.86 224.50,258.00 216.63,258.02 C207.57,258.04 207.39,258.27 208.89,268.06 C209.99,275.24 209.95,276.48 208.61,277.81 C207.24,279.19 206.99,279.09 206.14,276.86 C205.62,275.49 204.87,271.81 204.48,268.68 C204.09,265.56 203.31,263.00 202.74,263.00 C202.18,263.00 199.59,265.14 197.00,267.75 C192.45,272.34 188.00,281.35 188.00,285.98 C188.00,287.08 186.83,288.45 185.26,289.20 C182.18,290.68 181.24,293.38 183.04,295.55 C184.05,296.76 189.43,297.00 215.87,296.98 C233.27,296.98 248.02,296.64 248.65,296.23 ZM 275.73 311.72 L 267.96 304.50 L 267.98 272.75 L 268.00 241.00 L 282.00 241.00 L 296.00 241.00 L 296.00 246.53 C296.00,254.43 294.21,257.78 286.13,264.95 L 279.00 271.29 L 279.00 283.56 L 279.00 295.83 L 285.39 300.91 C288.91,303.71 292.28,306.00 292.89,306.00 C293.61,306.00 294.02,302.95 294.06,297.25 L 294.11 288.50 L 300.11 284.14 L 306.10 279.77 L 311.80 284.26 L 317.50 288.76 L 317.79 297.38 C317.95,302.25 318.51,306.00 319.08,306.00 C319.62,306.00 322.98,303.67 326.54,300.82 L 333.00 295.64 L 333.00 283.35 L 333.00 271.06 L 326.40 265.78 C318.30,259.30 316.00,255.16 316.00,247.04 L 316.00 241.00 L 324.78 241.00 L 333.55 241.00 L 340.29 247.79 L 347.03 254.58 L 346.76 286.54 L 346.50 318.50 L 315.00 318.72 L 283.50 318.94 L 275.73 311.72 ZM 307.81 303.17 C308.07,300.53 307.78,300.00 306.06,300.00 C304.46,300.00 304.00,300.64 304.00,302.83 C304.00,308.11 307.30,308.41 307.81,303.17 ZM 360.92 318.25 C360.87,317.84 360.85,303.55 360.86,286.50 L 360.89 255.50 L 367.54 248.25 L 374.18 241.00 L 406.09 241.00 L 438.00 241.00 L 438.00 272.27 L 438.00 303.55 L 430.23 311.27 L 422.46 319.00 L 413.23 319.00 C403.67,319.00 401.65,317.95 406.00,315.23 C407.10,314.55 408.00,313.03 408.00,311.87 C408.00,310.26 407.53,309.89 406.00,310.29 C404.30,310.73 404.00,310.32 404.00,307.56 C404.00,305.58 404.78,303.60 406.00,302.50 C407.10,301.50 408.00,299.81 408.00,298.73 C408.00,297.26 407.50,296.90 406.00,297.29 C404.26,297.74 404.00,297.32 404.00,294.03 C404.00,291.37 405.46,287.61 408.90,281.37 L 413.81 272.50 L 395.76 272.23 C385.83,272.08 377.52,272.14 377.29,272.37 C377.06,272.60 379.15,276.80 381.94,281.70 C387.77,291.95 388.26,295.42 384.33,298.55 C381.17,301.07 381.64,304.57 385.00,303.50 C386.69,302.96 387.00,303.32 387.00,305.78 C387.00,307.42 386.13,309.48 385.00,310.50 C382.79,312.50 382.28,316.99 384.25,317.02 C385.08,317.03 385.00,317.35 384.00,318.00 C382.25,319.13 361.04,319.36 360.92,318.25 Z" fill="rgb(254,254,254)"/>
</g>
</svg>